<?xml version="1.0" encoding="UTF-8"?>
<svg xmlns="http://www.w3.org/2000/svg" version="1.1" viewBox="0 0 14 14">
  <!-- Generator: Adobe Illustrator 29.1.0, SVG Export Plug-In . SVG Version: 2.1.0 Build 142)  -->
  <defs>
    <style>
      .st0 {
        fill: #fff;
      }
    </style>
  </defs>
  <g id="Ebene_1" focusable="false">
    <path class="st0" d="M1,1v12h12V1H1ZM5.3,9.6h-1v-5.3h1v5.3ZM8.8,9.6v-.6h0c-.2.4-.7.7-1.3.7-.9,0-1.6-.8-1.6-2,0-1.3.8-2.1,1.7-2.1s.9.2,1.1.5h0v-2.2h1v4.5c0,.4,0,.8,0,1.1h-.9,0ZM7.8,6.4c-.6,0-1,.6-1,1.3s.3,1.2,1,1.2.7-.3.8-.7c0,0,0-.2,0-.3v-.6c0,0,0-.2,0-.3,0-.4-.4-.7-.8-.7Z"/>
  </g>
</svg>