<?xml version="1.0" encoding="UTF-8"?>
<svg xmlns="http://www.w3.org/2000/svg" version="1.1" viewBox="0 0 14 14">
  <!-- Generator: Adobe Illustrator 29.1.0, SVG Export Plug-In . SVG Version: 2.1.0 Build 142)  -->
  <defs>
    <style>
      .st0 {
        fill: #fff;
      }
    </style>
  </defs>
  <g id="Ebene_1" focusable="false">
    <path class="st0" d="M1,1v12h12V1H1ZM7.3,10l-.5-1.6h-1.8l-.5,1.6h-1.1l1.8-5.6h1.3l1.8,5.6h-1.1ZM10,10h-1v-4.1h1v4.1ZM9.5,5.4c-.3,0-.6-.2-.6-.6s.2-.6.6-.6.6.2.6.6c0,.3-.2.6-.6.6ZM5.9,5.2h0c0,.3-.2.7-.3,1.1l-.4,1.4h1.4l-.4-1.4c-.1-.3-.2-.7-.3-1.1Z"/>
  </g>
</svg>