<?xml version="1.0" encoding="UTF-8"?>
<svg id="Ebene_1" xmlns="http://www.w3.org/2000/svg" version="1.1" viewBox="0 0 512 512">
  <!-- Generator: Adobe Illustrator 29.1.0, SVG Export Plug-In . SVG Version: 2.1.0 Build 142)  -->
  <defs>
    <style>
      .st0 {
        fill: #fff;
        fill-rule: evenodd;
      }
    </style>
  </defs>
  <path class="st0" d="M512,512H0V0h512v512ZM406.4,217v-39.7c-6.5-2.9-44-13.6-73.6-2.3-42.6,16.3-41.1,65.3-24.9,84.5,21,24.9,73.1,34.2,64.6,58.7-4.4,12.7-25,14.9-43.2,10.6-16.9-4-31.7-14-31.7-14v42s14.6,8.1,32.4,10c22.9,2.5,51.6-2.2,66-15,25.6-22.7,29.5-73.1-19-96.5-40.4-19.5-39.7-25-39.4-35,.4-13.4,28.5-21.6,68.8-3.3ZM188.8,105.6c33.6,1.2,82.9,16.6,82.9,82.6s-60.4,87.6-115.5,82.9v93.4h-41V106.5s40-2,73.6-.9ZM199.4,230.2c17.7-6.5,29.2-20.3,29.2-41.9s-11.7-38.3-29.6-42.7c-19.4-4.7-42.8-1.9-42.8-1.9v90s32.4.5,43.2-3.5Z"/>
</svg>