<?xml version="1.0" encoding="UTF-8"?>
<svg id="Ebene_1" xmlns="http://www.w3.org/2000/svg" version="1.1" viewBox="0 0 24 24">
  <!-- Generator: Adobe Illustrator 29.1.0, SVG Export Plug-In . SVG Version: 2.1.0 Build 142)  -->
  <defs>
    <style>
      .st0 {
        fill: none;
        stroke: #fff;
        stroke-miterlimit: 10;
        stroke-width: 1.5px;
      }
    </style>
  </defs>
  <path class="st0" d="M12,2h-3.3c-1.9,0-3.4,1.5-3.4,3.3s1.5,3.3,3.3,3.3h3.4V2Z"/>
  <path class="st0" d="M12,8.7h-3.3c-1.8,0-3.3,1.5-3.3,3.3s1.5,3.3,3.3,3.3h3.3v-6.6Z"/>
  <path class="st0" d="M12,15.3h-3.3c-1.8,0-3.3,1.5-3.3,3.3s1.5,3.3,3.3,3.3,3.3-1.5,3.3-3.3v-3.3Z"/>
  <path class="st0" d="M12,2h3.3c1.8,0,3.3,1.5,3.3,3.3s-1.5,3.3-3.3,3.3h-3.3V2Z"/>
  <path class="st0" d="M15.3,8.7c1.8,0,3.3,1.5,3.3,3.3s-1.5,3.3-3.3,3.3-3.3-1.5-3.3-3.3,1.5-3.3,3.3-3.3Z"/>
</svg>