<?xml version="1.0" encoding="UTF-8"?>
<svg id="Capa_1" xmlns="http://www.w3.org/2000/svg" version="1.1" viewBox="0 0 90.2 90.2">
  <!-- Generator: Adobe Illustrator 29.1.0, SVG Export Plug-In . SVG Version: 2.1.0 Build 142)  -->
  <defs>
    <style>
      .st0 {
        fill: #fff;
      }
    </style>
  </defs>
  <path id="WordPress__x28_alt_x29_" class="st0" d="M5.2,23.2C12.7,9.2,27.7,0,45.1,0s21.5,4.8,29.4,11.5c-2.3-.4-4.7,0-7.2,1.5-5.8,3.3-7.7,12.7-.2,17.5,4.7,2.9,6.4,10.3,6.2,14.8-.2,4.5-10.9,25.1-10.9,25.1l-10.5-36s-.4-2.5-.4-3.3.3-2,.9-2.7c.4-.4,1-1.3,1.7-1.3h5v-4h-27v4h.8c.9,0,1.7,1.2,2.6,2,1,1,2.2,4.8,3.7,8.8l3.9,12.9-8.5,19.6-9.3-39.1s.3-2.7.8-3.1c.4-.3.9-1.1,1.6-1.1h.3v-4s-22.9,0-22.9,0ZM10.5,29.9s-2.2-2.8-4.5-2.8h-2.4C1.4,32.2,0,38.9,0,45c0,18.5,11.4,34.4,27.5,41.2L10.5,29.9ZM83.8,22.8c.9,4.1.7,9-1,14.4-4.4,14.1-15.1,39.4-19.3,49.1,15.7-7,26.6-22.6,26.6-40.7s-2.3-16.1-6.3-22.7ZM46,60.8l-11.5,28.1c3.4.8,6.9,1.3,10.6,1.3s7.4-.5,11-1.3l-10-28Z"/>
</svg>